# xmcd
#
# Track frame offsets: 
#        183
#        13608
#        26058
#        38283
#        49833
#        72633
#        86133
#        103008
#        114558
#        128283
#        139833
#        152583
#        169833
#        183783
#        202683
#        219540
#        234170
#        249380
#        267260
#        283648
#        301228
#
# Disc length: 4203 seconds
#
# Revision: 2
# Processed by: cddbd v1.5.2PL0 Copyright (c) Steve Scherf et al.
# Submitted via: ExactAudioCopy v0.99pb5
#
DISCID=14106915
DTITLE=Various Artist - Traumreise der Erinnerung - CD 2
DYEAR=1990
DGENRE=Schlager
TTITLE0=Ivo Robic - Mit 17 fängt das Leben erst an
TTITLE1=Renate Kern - Lieber mal weinen im Glück
TTITLE2=Ted Herold - Moonlight
TTITLE3=Anna-Lena - Alle Blumen wollen blühen
TTITLE4=Ricky Shayne - Mamy Blue
TTITLE5=Mireille Mathieu - Martin
TTITLE6=Chris Roberts - Du kannst nicht immer siebzehn sein
TTITLE7=Udo Jürgens - Siebzehn Jahr, blondes Haar (Version '72)
TTITLE8=Roy Black - Ganz in weiß
TTITLE9=Renate Kern - Laß doch den Sonnenschein
TTITLE10=Freddy Breck - Rote Rosen
TTITLE11=Tina York - Ich liebe ihn
TTITLE12=Anne-Karin - Dreh dich weiter, Ballerina
TTITLE13=Adam and Eve - Wenn die Sonne erwacht in den Bergen
TTITLE14=Roland Kaiser - Dich zu lieben
TTITLE15=Nicole - Flieg nicht so hoch, mein kleiner Freund
TTITLE16=Bernhard Brink - Ich wär' so gern wie du
TTITLE17=Andrea Jürgens - Und dabei liebe ich euch beide
TTITLE18=Howard Carpendale - Hello Again
TTITLE19=Gitte - Ich will alles
TTITLE20=Oliver Bendt - Was ich tat, tat ich nur für Maria
EXTD=CD von I.B.\n
EXTT0=
EXTT1=
EXTT2=
EXTT3=
EXTT4=
EXTT5=
EXTT6=
EXTT7=
EXTT8=
EXTT9=
EXTT10=
EXTT11=
EXTT12=
EXTT13=
EXTT14=
EXTT15=
EXTT16=
EXTT17=
EXTT18=
EXTT19=
EXTT20=
PLAYORDER=
